<svg width="450" height="450" viewBox="0 0 450 450" fill="none" xmlns="http://www.w3.org/2000/svg">
<path d="M145.172 209.5V85.5H165.672V103.5L225.172 68L304.672 114V209.5" stroke="#E9983E" stroke-width="5"/>
<path d="M226.172 68.5V210" stroke="#E9983E" stroke-width="5"/>
<path d="M175.884 318.732H149.196L144.78 331.5H130.668L154.764 264.396H170.412L194.508 331.5H180.3L175.884 318.732ZM172.236 307.98L162.54 279.948L152.844 307.98H172.236Z" fill="#E9983E"/>
<path d="M200.251 297.9C200.251 291.308 201.723 285.42 204.667 280.236C207.675 274.988 211.739 270.924 216.859 268.044C222.043 265.1 227.835 263.628 234.235 263.628C241.723 263.628 248.283 265.548 253.915 269.388C259.547 273.228 263.483 278.54 265.723 285.324H250.267C248.731 282.124 246.555 279.724 243.739 278.124C240.987 276.524 237.787 275.724 234.139 275.724C230.235 275.724 226.747 276.652 223.675 278.508C220.667 280.3 218.299 282.86 216.571 286.188C214.907 289.516 214.075 293.42 214.075 297.9C214.075 302.316 214.907 306.22 216.571 309.612C218.299 312.94 220.667 315.532 223.675 317.388C226.747 319.18 230.235 320.076 234.139 320.076C237.787 320.076 240.987 319.276 243.739 317.676C246.555 316.012 248.731 313.58 250.267 310.38H265.723C263.483 317.228 259.547 322.572 253.915 326.412C248.347 330.188 241.787 332.076 234.235 332.076C227.835 332.076 222.043 330.636 216.859 327.756C211.739 324.812 207.675 320.748 204.667 315.564C201.723 310.38 200.251 304.492 200.251 297.9Z" fill="#E9983E"/>
<path d="M290.642 275.34V292.14H313.202V302.796H290.642V320.556H316.082V331.5H277.202V264.396H316.082V275.34H290.642Z" fill="#E9983E"/>
<path d="M129.48 357.408L122.208 382.5H118.536L112.704 362.304L106.656 382.5L103.02 382.536L96 357.408H99.492L104.964 378.684L111.012 357.408H114.684L120.444 378.612L125.952 357.408H129.48Z" fill="#787878"/>
<path d="M141.669 382.824C139.821 382.824 138.141 382.404 136.629 381.564C135.141 380.724 133.965 379.536 133.101 378C132.261 376.44 131.841 374.64 131.841 372.6C131.841 370.584 132.273 368.808 133.137 367.272C134.025 365.712 135.225 364.524 136.737 363.708C138.249 362.868 139.941 362.448 141.813 362.448C143.685 362.448 145.377 362.868 146.889 363.708C148.401 364.524 149.589 365.7 150.453 367.236C151.341 368.772 151.785 370.56 151.785 372.6C151.785 374.64 151.329 376.44 150.417 378C149.529 379.536 148.317 380.724 146.781 381.564C145.245 382.404 143.541 382.824 141.669 382.824ZM141.669 379.944C142.845 379.944 143.949 379.668 144.981 379.116C146.013 378.564 146.841 377.736 147.465 376.632C148.113 375.528 148.437 374.184 148.437 372.6C148.437 371.016 148.125 369.672 147.501 368.568C146.877 367.464 146.061 366.648 145.053 366.12C144.045 365.568 142.953 365.292 141.777 365.292C140.577 365.292 139.473 365.568 138.465 366.12C137.481 366.648 136.689 367.464 136.089 368.568C135.489 369.672 135.189 371.016 135.189 372.6C135.189 374.208 135.477 375.564 136.053 376.668C136.653 377.772 137.445 378.6 138.429 379.152C139.413 379.68 140.493 379.944 141.669 379.944Z" fill="#787878"/>
<path d="M159.368 365.976C159.944 364.848 160.76 363.972 161.816 363.348C162.896 362.724 164.204 362.412 165.74 362.412V365.796H164.876C161.204 365.796 159.368 367.788 159.368 371.772V382.5H156.092V362.772H159.368V365.976Z" fill="#787878"/>
<path d="M172.798 355.86V382.5H169.522V355.86H172.798Z" fill="#787878"/>
<path d="M177.158 372.564C177.158 370.548 177.566 368.784 178.382 367.272C179.198 365.736 180.313 364.548 181.729 363.708C183.169 362.868 184.777 362.448 186.553 362.448C188.089 362.448 189.518 362.808 190.838 363.528C192.158 364.224 193.166 365.148 193.862 366.3V355.86H197.174V382.5H193.862V378.792C193.214 379.968 192.253 380.94 190.981 381.708C189.709 382.452 188.222 382.824 186.518 382.824C184.766 382.824 183.169 382.392 181.729 381.528C180.313 380.664 179.198 379.452 178.382 377.892C177.566 376.332 177.158 374.556 177.158 372.564ZM193.862 372.6C193.862 371.112 193.562 369.816 192.962 368.712C192.362 367.608 191.546 366.768 190.514 366.192C189.506 365.592 188.389 365.292 187.165 365.292C185.941 365.292 184.825 365.58 183.817 366.156C182.809 366.732 182.006 367.572 181.406 368.676C180.806 369.78 180.506 371.076 180.506 372.564C180.506 374.076 180.806 375.396 181.406 376.524C182.006 377.628 182.809 378.48 183.817 379.08C184.825 379.656 185.941 379.944 187.165 379.944C188.389 379.944 189.506 379.656 190.514 379.08C191.546 378.48 192.362 377.628 192.962 376.524C193.562 375.396 193.862 374.088 193.862 372.6Z" fill="#787878"/>
<path d="M228.99 362.772L222.834 382.5H219.45L214.698 366.84L209.946 382.5H206.562L200.37 362.772H203.718L208.254 379.332L213.15 362.772H216.498L221.286 379.368L225.75 362.772H228.99Z" fill="#787878"/>
<path d="M233.933 359.568C233.309 359.568 232.781 359.352 232.349 358.92C231.917 358.488 231.701 357.96 231.701 357.336C231.701 356.712 231.917 356.184 232.349 355.752C232.781 355.32 233.309 355.104 233.933 355.104C234.533 355.104 235.037 355.32 235.445 355.752C235.877 356.184 236.093 356.712 236.093 357.336C236.093 357.96 235.877 358.488 235.445 358.92C235.037 359.352 234.533 359.568 233.933 359.568ZM235.517 362.772V382.5H232.241V362.772H235.517Z" fill="#787878"/>
<path d="M239.876 372.564C239.876 370.548 240.284 368.784 241.1 367.272C241.916 365.736 243.032 364.548 244.448 363.708C245.888 362.868 247.496 362.448 249.272 362.448C250.808 362.448 252.236 362.808 253.556 363.528C254.876 364.224 255.884 365.148 256.58 366.3V355.86H259.892V382.5H256.58V378.792C255.932 379.968 254.972 380.94 253.7 381.708C252.428 382.452 250.94 382.824 249.236 382.824C247.484 382.824 245.888 382.392 244.448 381.528C243.032 380.664 241.916 379.452 241.1 377.892C240.284 376.332 239.876 374.556 239.876 372.564ZM256.58 372.6C256.58 371.112 256.28 369.816 255.68 368.712C255.08 367.608 254.264 366.768 253.232 366.192C252.224 365.592 251.108 365.292 249.884 365.292C248.66 365.292 247.544 365.58 246.536 366.156C245.528 366.732 244.724 367.572 244.124 368.676C243.524 369.78 243.224 371.076 243.224 372.564C243.224 374.076 243.524 375.396 244.124 376.524C244.724 377.628 245.528 378.48 246.536 379.08C247.544 379.656 248.66 379.944 249.884 379.944C251.108 379.944 252.224 379.656 253.232 379.08C254.264 378.48 255.08 377.628 255.68 376.524C256.28 375.396 256.58 374.088 256.58 372.6Z" fill="#787878"/>
<path d="M283.428 371.88C283.428 372.504 283.392 373.164 283.32 373.86H267.552C267.672 375.804 268.332 377.328 269.532 378.432C270.756 379.512 272.232 380.052 273.96 380.052C275.376 380.052 276.552 379.728 277.488 379.08C278.448 378.408 279.12 377.52 279.504 376.416H283.032C282.504 378.312 281.448 379.86 279.864 381.06C278.28 382.236 276.312 382.824 273.96 382.824C272.088 382.824 270.408 382.404 268.92 381.564C267.456 380.724 266.304 379.536 265.464 378C264.624 376.44 264.204 374.64 264.204 372.6C264.204 370.56 264.612 368.772 265.428 367.236C266.244 365.7 267.384 364.524 268.848 363.708C270.336 362.868 272.04 362.448 273.96 362.448C275.832 362.448 277.488 362.856 278.928 363.672C280.368 364.488 281.472 365.616 282.24 367.056C283.032 368.472 283.428 370.08 283.428 371.88ZM280.044 371.196C280.044 369.948 279.768 368.88 279.216 367.992C278.664 367.08 277.908 366.396 276.948 365.94C276.012 365.46 274.968 365.22 273.816 365.22C272.16 365.22 270.744 365.748 269.568 366.804C268.416 367.86 267.756 369.324 267.588 371.196H280.044Z" fill="#787878"/>
<path d="M300.626 379.836H309.41V382.5H297.35V357.408H300.626V379.836Z" fill="#787878"/>
<path d="M328.333 357.408V360.072H321.493V382.5H318.217V360.072H311.341V357.408H328.333Z" fill="#787878"/>
<path d="M340.178 357.408C342.914 357.408 345.278 357.924 347.27 358.956C349.286 359.964 350.822 361.416 351.878 363.312C352.958 365.208 353.498 367.44 353.498 370.008C353.498 372.576 352.958 374.808 351.878 376.704C350.822 378.576 349.286 380.016 347.27 381.024C345.278 382.008 342.914 382.5 340.178 382.5H332.366V357.408H340.178ZM340.178 379.8C343.418 379.8 345.89 378.948 347.594 377.244C349.298 375.516 350.15 373.104 350.15 370.008C350.15 366.888 349.286 364.452 347.558 362.7C345.854 360.948 343.394 360.072 340.178 360.072H335.642V379.8H340.178Z" fill="#787878"/>
</svg>
